<?xml version="1.0" encoding="UTF-8"?>
<svg version="1.1" xmlns="http://www.w3.org/2000/svg" width="1534" height="313">
<path d="M0 0 C506.22 0 1012.44 0 1534 0 C1534 103.29 1534 206.58 1534 313 C1027.78 313 521.56 313 0 313 C0 209.71 0 106.42 0 0 Z " fill="#FDFDFD" transform="translate(0,0)"/>
<path d="M0 0 C1.12148438 0.38414063 2.24296875 0.76828125 3.3984375 1.1640625 C22.86877637 8.5217484 37.21073051 23.28480716 46.3359375 41.6953125 C56.70081342 64.74930925 57.12067908 91.10686608 48.6796875 114.86328125 C40.25078901 135.93552747 25.56279539 150.72338678 4.9375 159.8125 C-19.95904053 169.59328378 -49.53752724 169.04358886 -74.3125 159.3125 C-93.78907413 150.328508 -108.68463263 135.1663415 -116.375 115.125 C-125.02916236 90.84154846 -124.68522164 64.56003787 -114 41 C-104.14585479 20.80158194 -86.6786696 6.7342656 -65.625 -0.578125 C-44.47297736 -7.50195409 -20.98846679 -7.59613219 0 0 Z " fill="#010101" transform="translate(677,101)"/>
<path d="M0 0 C1.2794751 0.00491455 2.5589502 0.0098291 3.87719727 0.01489258 C12.84662011 0.12627495 21.06121181 0.68893303 29.6875 3.3125 C30.89148438 3.67601563 32.09546875 4.03953125 33.3359375 4.4140625 C49.09872761 9.62351339 61.16298113 17.81054925 68.9453125 32.72265625 C74.84187211 46.15370869 74.00727921 61.10888895 74.06640625 75.45703125 C74.08262261 77.5973127 74.09980676 79.73758702 74.11790466 81.87785339 C74.16332667 87.48573461 74.19824987 93.09362622 74.23010254 98.70159912 C74.28219036 107.6634205 74.34790425 116.62513441 74.41831779 125.58682823 C74.44081766 128.68839475 74.45730369 131.78994858 74.47303772 134.89155579 C74.48647099 136.82980481 74.50008799 138.76805258 74.51391602 140.70629883 C74.51783607 141.96393539 74.51783607 141.96393539 74.52183533 143.24697876 C74.58911039 151.31974118 75.18110267 159.21014276 75.6875 167.3125 C61.4975 167.3125 47.3075 167.3125 32.6875 167.3125 C31.6975 159.3925 31.6975 159.3925 30.6875 151.3125 C30.3575 150.6525 30.0275 149.9925 29.6875 149.3125 C29.08164062 149.96476563 28.47578125 150.61703125 27.8515625 151.2890625 C17.19477912 162.40490732 3.66678899 170.48973315 -12.10473633 171.48950195 C-34.6581457 171.94415666 -53.88461502 171.07871393 -71.08984375 154.71875 C-80.05571416 145.01228923 -84.06524389 132.4699501 -83.5625 119.3671875 C-82.62999213 107.97310695 -79.09663764 96.75776625 -70.33203125 88.890625 C-50.24590238 73.19469451 -27.08651732 70.52480574 -2.40185547 69.0324707 C7.70240589 68.39946142 18.02548529 67.53317157 27.6875 64.3125 C28.5890987 52.54709543 28.5890987 52.54709543 23.6875 42.3125 C16.04248664 35.9850315 8.07197862 34.93079814 -1.5625 34.875 C-2.54863281 34.84212891 -3.53476562 34.80925781 -4.55078125 34.77539062 C-13.19584401 34.71274524 -19.34863666 37.29651702 -26.1875 42.5 C-29.15608948 46.42901549 -30.70463028 50.68650612 -32.3125 55.3125 C-46.67683378 55.45409803 -60.96689344 55.04657023 -75.3125 54.3125 C-74.46832602 41.47247073 -70.93624628 32.00716902 -62.3125 22.3125 C-61.81363281 21.70921875 -61.31476563 21.1059375 -60.80078125 20.484375 C-45.98645382 3.91621032 -20.93701935 -0.09513693 0 0 Z " fill="#010101" transform="translate(393.3125,95.6875)"/>
<path d="M0 0 C14.69483077 13.79330741 22.72533437 32.05349372 25.421875 51.828125 C25.421875 60.738125 25.421875 69.648125 25.421875 78.828125 C-14.838125 78.828125 -55.098125 78.828125 -96.578125 78.828125 C-93.21669766 92.27383438 -90.32733251 102.79530602 -78.578125 110.828125 C-67.59271714 116.95494597 -52.79507213 118.14128846 -40.62109375 114.95703125 C-32.3579137 112.02307326 -26.94372133 108.02515075 -22.640625 100.390625 C-22.29 99.545 -21.939375 98.699375 -21.578125 97.828125 C-12.10326745 97.55084967 -2.80620875 98.41821992 6.609375 99.328125 C8.14904467 99.47312286 9.68875805 99.61765742 11.22851562 99.76171875 C14.96015371 100.11185548 18.6911638 100.46823085 22.421875 100.828125 C17.25913035 119.55899804 6.14872456 132.94248802 -10.69921875 142.62109375 C-24.97695185 149.98731274 -38.5477792 152.27398425 -54.453125 152.265625 C-55.23402496 152.26602783 -56.01492493 152.26643066 -56.81948853 152.2668457 C-79.71440209 152.1987087 -100.30134713 146.58996152 -117.578125 130.828125 C-118.49078125 130.05275391 -118.49078125 130.05275391 -119.421875 129.26171875 C-133.48674451 116.50743935 -141.54325798 96.2317225 -142.79394531 77.61572266 C-143.85946533 50.73625546 -139.20019155 26.3490427 -120.578125 5.828125 C-89.39552518 -26.26374445 -34.274127 -28.87335547 0 0 Z " fill="#EB0B23" transform="translate(1001.578125,115.171875)"/>
<path d="M0 0 C0.92353271 0.00749268 1.84706543 0.01498535 2.79858398 0.02270508 C20.17961726 0.29597736 35.49895449 4.77892983 47.94140625 17.56640625 C60.45709599 32.36199393 63.86822319 49.48568516 63.80102539 68.34765625 C63.80117142 69.43147079 63.80131744 70.51528534 63.8014679 71.63194275 C63.80077469 75.1921493 63.79301008 78.75230266 63.78515625 82.3125 C63.78328997 84.78971325 63.78186706 87.26692687 63.78086853 89.74414062 C63.77705992 96.24767078 63.7672438 102.75117842 63.75616455 109.25469971 C63.74591479 115.89766171 63.74136328 122.54062592 63.73632812 129.18359375 C63.72562001 142.20573874 63.70875717 155.22786817 63.6875 168.25 C57.29712769 168.27527062 50.90676817 168.29283317 44.51635742 168.30493164 C42.34057127 168.30997308 40.16478853 168.31680607 37.98901367 168.32543945 C34.86896933 168.33751338 31.74896962 168.34323005 28.62890625 168.34765625 C27.64974747 168.35281754 26.67058868 168.35797882 25.66175842 168.36329651 C24.76090012 168.36337204 23.86004181 168.36344757 22.93188477 168.36352539 C22.13468521 168.365746 21.33748566 168.36796661 20.51612854 168.37025452 C18.6875 168.25 18.6875 168.25 17.6875 167.25 C17.57802113 164.10656709 17.53325754 160.98430442 17.52978516 157.84008789 C17.52470444 156.85138702 17.51962372 155.86268616 17.51438904 154.84402466 C17.50365665 152.68760641 17.49504782 150.53117681 17.48826981 148.37474251 C17.47650778 144.95675422 17.45705846 141.53889384 17.43515015 138.12095642 C17.37346778 128.39928481 17.31960612 118.6776233 17.28613281 108.95581055 C17.26512532 103.01528096 17.22976361 97.07497945 17.18537521 91.13458061 C17.17125266 88.87371962 17.16250128 86.61281822 17.15932083 84.35191536 C17.15438342 81.17585752 17.13114906 78.00039808 17.10400391 74.82446289 C17.10701004 73.89886063 17.11001617 72.97325836 17.1131134 72.01960754 C16.98067831 61.52603507 14.31608255 52.69586201 6.6875 45.25 C4.13564667 43.4802471 1.60124906 42.30267182 -1.3125 41.25 C-2.9521875 40.63125 -2.9521875 40.63125 -4.625 40 C-15.12944603 37.8635025 -25.70188133 39.13936119 -34.92578125 44.875 C-43.13371365 51.4965253 -47.40122548 61.02392772 -49.3125 71.25 C-49.59346143 74.4920505 -49.62326041 77.71770655 -49.63134766 80.97070312 C-49.64641609 82.3769696 -49.64641609 82.3769696 -49.66178894 83.81164551 C-49.69247497 86.88484124 -49.70961539 89.95795044 -49.7265625 93.03125 C-49.74528588 95.17216733 -49.76486016 97.31307737 -49.7852478 99.45397949 C-49.83645132 105.06969902 -49.87614002 110.68544243 -49.91339111 116.30126953 C-49.96056616 123.04957072 -50.02211336 129.79775443 -50.08123779 136.54595947 C-50.16930634 146.78059192 -50.23917378 157.0152035 -50.3125 167.25 C-65.1625 167.25 -80.0125 167.25 -95.3125 167.25 C-95.3125 113.79 -95.3125 60.33 -95.3125 5.25 C-80.7925 5.25 -66.2725 5.25 -51.3125 5.25 C-50.9825 12.51 -50.6525 19.77 -50.3125 27.25 C-49.3225 25.93 -48.3325 24.61 -47.3125 23.25 C-45.98909737 21.57543706 -44.65559369 19.90881129 -43.3125 18.25 C-42.75691406 17.55777344 -42.20132812 16.86554688 -41.62890625 16.15234375 C-37.47907455 11.50342316 -32.87189511 8.66261556 -27.375 5.875 C-26.71894775 5.54105225 -26.06289551 5.20710449 -25.38696289 4.86303711 C-17.10151254 0.8855707 -9.11939217 -0.09778837 0 0 Z " fill="#EA0B23" transform="translate(1141.3125,95.75)"/>
<path d="M0 0 C16.17 0 32.34 0 49 0 C57.41077726 23.21652566 65.81954828 46.43309783 74.125 69.6875 C74.42375031 70.52335632 74.72250061 71.35921265 75.03030396 72.22039795 C76.73504939 76.99142027 78.4325191 81.76495087 80.12463379 86.54046631 C81.07057712 89.19830193 82.02695922 91.85227233 82.98339844 94.50634766 C83.63238878 96.323161 84.28115764 98.14005348 84.9296875 99.95703125 C85.23705841 100.80295334 85.54442932 101.64887543 85.8611145 102.52043152 C86.14139496 103.31008804 86.42167542 104.09974457 86.71044922 104.91333008 C86.95995331 105.60735428 87.2094574 106.30137848 87.46652222 107.01643372 C88 109 88 109 88 113 C88.66 113 89.32 113 90 113 C90.0827417 112.46542679 90.1654834 111.93085358 90.25073242 111.38008118 C91.73840808 102.92599866 94.54111243 94.95107875 97.3125 86.85546875 C97.84671277 85.28031283 98.38039278 83.70497614 98.91357422 82.12947083 C100.31800978 77.98446079 101.72997854 73.8420553 103.14349365 69.70013428 C104.54450754 65.59014077 105.9378155 61.47753775 107.33203125 57.36523438 C113.82679384 38.22226786 120.39538325 19.1053326 127 0 C142.84 0 158.68 0 175 0 C173.14286046 6.19046514 171.2941118 12.15044995 168.953125 18.13671875 C168.66548782 18.88148972 168.37785065 19.62626068 168.08149719 20.39360046 C167.14112356 22.82625537 166.19557156 25.25686137 165.25 27.6875 C164.57895894 29.42058598 163.90831237 31.15382474 163.23803711 32.88720703 C161.848132 36.4808705 160.45654281 40.07387543 159.06396484 43.66650391 C157.1124041 48.70496483 155.17294152 53.74799766 153.23828125 58.79296875 C146.5064173 76.34393164 139.71952211 93.8721549 132.87136841 111.37808228 C126.15511189 128.55071952 119.56434431 145.76859618 113 163 C96.5 163 80 163 63 163 C61.69546875 159.59429687 60.3909375 156.18859375 59.046875 152.6796875 C50.34269974 129.97613053 41.59738531 107.29891667 32.50439453 84.74804688 C26.92140246 70.86480491 21.47133926 56.92751372 16 43 C15.50708466 41.74579254 15.50708466 41.74579254 15.00421143 40.46624756 C13.03659905 35.45837793 11.07328146 30.44885731 9.11566162 25.43707275 C8.50347035 23.87086631 7.89025232 22.30506076 7.27593994 20.73968506 C6.42432162 18.56854886 5.57685925 16.39583485 4.73046875 14.22265625 C4.35807823 13.27672859 4.35807823 13.27672859 3.97816467 12.31169128 C2.39327066 8.22481036 1.21442685 4.25049399 0 0 Z " fill="#020202" transform="translate(141,100)"/>
<path d="M0 0 C15.18 0 30.36 0 46 0 C46 14.85 46 29.7 46 45 C58.54 45 71.08 45 84 45 C84 56.88 84 68.76 84 81 C71.46 81 58.92 81 46 81 C46.06178209 94.66817213 46.06178209 94.66817213 46.16015625 108.3359375 C46.20841988 113.91439077 46.25249131 119.49264735 46.27099609 125.07128906 C46.28619315 129.57137009 46.32069245 134.07093489 46.36830902 138.57078552 C46.38309147 140.2834371 46.39103921 141.9961624 46.39188385 143.70887756 C46.17088175 155.98914804 46.17088175 155.98914804 51 167 C60.44603613 174.8382002 72.51907192 171.95674401 84 171 C84 183.21 84 195.42 84 208 C70.11504276 210.31415954 70.11504276 210.31415954 63.62890625 210.3359375 C62.8998558 210.3425943 62.17080536 210.3492511 61.41966248 210.35610962 C59.89820834 210.36610425 58.37671154 210.37093082 56.85522461 210.37060547 C54.56874515 210.37498803 52.2841885 210.4114718 49.99804688 210.44921875 C35.35102729 210.56227923 21.82008318 207.53610323 10.9375 197.00390625 C3.02212656 187.70675426 -0.16433444 176.05480344 -0.11352539 164.10058594 C-0.11367142 163.20267334 -0.11381744 162.30476074 -0.1139679 161.37963867 C-0.11327176 158.41452613 -0.10549329 155.44947656 -0.09765625 152.484375 C-0.09579101 150.42742955 -0.09436761 148.37048365 -0.09336853 146.3135376 C-0.0895517 140.90155815 -0.07972851 135.48960556 -0.06866455 130.07763672 C-0.05843252 124.55436568 -0.05386707 119.03109029 -0.04882812 113.5078125 C-0.03810551 102.6718613 -0.02051543 91.83593709 0 81 C-9.57 81 -19.14 81 -29 81 C-29 69.12 -29 57.24 -29 45 C-19.43 45 -9.86 45 0 45 C0 30.15 0 15.3 0 0 Z " fill="#EB0C24" transform="translate(1244,55)"/>
<path d="M0 0 C15.18 0 30.36 0 46 0 C46 76.23 46 152.46 46 231 C30.82 231 15.64 231 0 231 C0 154.77 0 78.54 0 0 Z " fill="#020202" transform="translate(491,33)"/>
<path d="M0 0 C1.17079102 0.0009668 1.17079102 0.0009668 2.36523438 0.00195312 C6.43167003 0.03299462 9.75204828 0.37540966 13.8125 1.1875 C13.8125 15.3775 13.8125 29.5675 13.8125 44.1875 C0.0625 43.875 0.0625 43.875 -4.19433594 43.73706055 C-15.227351 43.61700176 -24.76279094 46.37585899 -33.44140625 53.39453125 C-43.00349802 63.21332347 -46.4686836 77.71813073 -46.50634766 91.01196289 C-46.52141609 92.2575145 -46.52141609 92.2575145 -46.53678894 93.52822876 C-46.56737234 96.238865 -46.58458615 98.94940366 -46.6015625 101.66015625 C-46.62029419 103.55302252 -46.63986907 105.44588061 -46.6602478 107.33872986 C-46.71136366 112.29518798 -46.7510988 117.25167312 -46.78839111 122.20825195 C-46.83563584 128.16898202 -46.8971449 134.12958021 -46.95623779 140.09020233 C-47.04419928 149.12258105 -47.11414301 158.15493771 -47.1875 167.1875 C-62.0375 167.1875 -76.8875 167.1875 -92.1875 167.1875 C-92.1875 113.0675 -92.1875 58.9475 -92.1875 3.1875 C-77.6675 3.1875 -63.1475 3.1875 -48.1875 3.1875 C-48.1875 12.0975 -48.1875 21.0075 -48.1875 30.1875 C-47.5275 30.1875 -46.8675 30.1875 -46.1875 30.1875 C-45.9090625 28.9809375 -45.9090625 28.9809375 -45.625 27.75 C-40.96974222 16.21305681 -31.11666131 8.8072607 -20.3125 3.44921875 C-13.41988702 0.66632626 -7.34820063 -0.11702918 0 0 Z " fill="#EB0A22" transform="translate(843.1875,96.8125)"/>
<path d="M0 0 C0.79196777 0.00942627 1.58393555 0.01885254 2.39990234 0.02856445 C8.0517305 0.17472238 12.98057117 0.73874942 18.0625 3.375 C19.0834375 3.90287109 19.0834375 3.90287109 20.125 4.44140625 C31.47867702 10.95686863 37.43628432 20.94452267 41.0625 33.375 C44.33412876 51.80165749 41.38478764 69.29711942 31.3125 85.125 C27.92353608 88.51396392 24.19653783 90.97225508 20.0625 93.375 C19.00289062 94.00341797 19.00289062 94.00341797 17.921875 94.64453125 C8.42982654 99.34077201 -5.03122923 99.05591831 -15 95.875 C-25.94088527 91.01615965 -32.86431418 83.29018277 -37.15234375 72.24609375 C-42.46800608 56.8287813 -43.59180383 37.60974363 -36.578125 22.43359375 C-35.1502516 19.964256 -33.62506273 17.67268156 -31.9375 15.375 C-31.195 14.3025 -30.4525 13.23 -29.6875 12.125 C-21.61328064 4.05078064 -11.31670591 -0.20867514 0 0 Z " fill="#FCFCFC" transform="translate(642.9375,132.625)"/>
<path d="M0 0 C6.49461003 5.0968832 10.24882498 10.91287314 11.33203125 19.15234375 C11.72958922 29.53069923 9.57526766 36.75713806 2.54296875 44.40234375 C1.34424539 45.47890422 0.11541067 46.52311943 -1.14453125 47.52734375 C-1.68207031 47.96175781 -2.21960937 48.39617187 -2.7734375 48.84375 C-9.43319711 53.11970304 -18.54857982 52.53238694 -26.14453125 51.52734375 C-35.40162086 49.05561764 -41.1387655 42.22385274 -46.14453125 34.40234375 C-48.79228814 26.92939833 -48.42181794 17.27583753 -45.20703125 10.08984375 C-41.53342487 3.84575358 -35.30424742 -2.58349369 -28.34765625 -5.0703125 C-17.78995043 -6.99840417 -8.7955057 -6.039901 0 0 Z " fill="#EA0B22" transform="translate(1394.14453125,213.47265625)"/>
<path d="M0 0 C1.30754464 25.11826774 1.30754464 25.11826774 -7.72265625 36.09375 C-15.65163201 44.03956011 -27.69731704 47.07815917 -38.625 47.3125 C-47.75539805 47.19789249 -54.91323937 45.4958896 -61.6875 39.125 C-65.6664899 34.15126263 -66.09881165 29.56093689 -65.71484375 23.31640625 C-64.40187609 17.22509725 -61.13614386 14.35028878 -56.31640625 10.73828125 C-46.22212456 4.69070492 -31.98318052 4.73098147 -20.54321289 3.7734375 C-13.83455143 3.17716725 -6.49058143 0 0 0 Z " fill="#FAFAFA" transform="translate(422,188)"/>
<path d="M0 0 C7.48498612 5.08135677 12.58967522 11.19951183 15 20 C15.495 24.95 15.495 24.95 16 30 C-9.08 30 -34.16 30 -60 30 C-57.6038607 16.82123385 -54.05940315 8.7450168 -43 1 C-30.89796156 -6.53626939 -12.55452262 -6.85128816 0 0 Z " fill="#FDF7F8" transform="translate(965,134)"/>
<path d="M0 0 C14.52 0 29.04 0 44 0 C44 0.66 44 1.32 44 2 C30.14 2 16.28 2 2 2 C2 54.8 2 107.6 2 162 C15.86 162 29.72 162 44 162 C44 134.28 44 106.56 44 78 C44.33 78 44.66 78 45 78 C45 106.38 45 134.76 45 164 C30.15 164 15.3 164 0 164 C0 109.88 0 55.76 0 0 Z " fill="#E8212E" transform="translate(751,100)"/>
<path d="M0 0 C0 3 0 3 -2.1875 5.48046875 C-3.115625 6.37378906 -4.04375 7.26710938 -5 8.1875 C-5.928125 9.08855469 -6.85625 9.98960938 -7.8125 10.91796875 C-8.534375 11.60503906 -9.25625 12.29210937 -10 13 C-10.66 12.34 -11.32 11.68 -12 11 C-10.56564079 9.5385774 -9.12739414 8.08096951 -7.6875 6.625 C-6.88699219 5.81289062 -6.08648438 5.00078125 -5.26171875 4.1640625 C-3 2 -3 2 0 0 Z " fill="#EC192B" transform="translate(890,113)"/>
<path d="M0 0 C0 3 0 3 -1.96875 5.26171875 C-2.8040625 6.06222656 -3.639375 6.86273438 -4.5 7.6875 C-5.3353125 8.49574219 -6.170625 9.30398437 -7.03125 10.13671875 C-7.6809375 10.75160156 -8.330625 11.36648437 -9 12 C-9.66 11.67 -10.32 11.34 -11 11 C-9.54540569 9.35086118 -8.08620743 7.70578218 -6.625 6.0625 C-5.81289063 5.14597656 -5.00078125 4.22945313 -4.1640625 3.28515625 C-2 1 -2 1 0 0 Z " fill="#EA172A" transform="translate(812,107)"/>
</svg>
